<svg width="32" height="32" viewBox="0 0 32 32" xmlns="http://www.w3.org/2000/svg">
  <!-- Background Circle -->
  <circle cx="16" cy="16" r="15" fill="#3b82f6" stroke="#1e40af" stroke-width="1"/>
  
  <!-- Trophy Cup -->
  <path d="M11 9.5 C11 8, 12.5 6.5, 16 6.5 C19.5 6.5, 21 8, 21 9.5 L21 14.5 C21 17.5, 19.5 20, 16 20 C12.5 20, 11 17.5, 11 14.5 Z" fill="#f59e0b" stroke="#d97706" stroke-width="0.5"/>
  
  <!-- Trophy Handles -->
  <path d="M9.5 11 C8 11, 6.5 12.5, 6.5 14.5 C6.5 16.5, 8 18, 9.5 18" stroke="#f59e0b" stroke-width="1.5" fill="none" stroke-linecap="round"/>
  <path d="M22.5 11 C24 11, 25.5 12.5, 25.5 14.5 C25.5 16.5, 24 18, 22.5 18" stroke="#f59e0b" stroke-width="1.5" fill="none" stroke-linecap="round"/>
  
  <!-- Trophy Base -->
  <rect x="13.5" y="22.5" width="5" height="2.5" rx="0.5" fill="#f59e0b"/>
  
  <!-- Trophy Stem -->
  <rect x="15" y="20" width="2" height="4" fill="#f59e0b"/>
  
  <!-- Star on Cup -->
  <path d="M16 9.5 L16.8 11.5 L18.5 11.5 L17.2 12.5 L17.8 14.5 L16 13.5 L14.2 14.5 L14.8 12.5 L13.5 11.5 L15.2 11.5 Z" fill="#ffffff"/>
  
  <!-- Shine Effect -->
  <ellipse cx="13.5" cy="10.5" rx="1.5" ry="2.5" fill="rgba(255,255,255,0.4)"/>
</svg>